#usda 1.0
(
    defaultPrim = "GameCase"
    metersPerUnit = 1
    upAxis = "Y"
)

def Xform "GameCase"
{
    def Scope "Looks"
    {
        def Material "ShellMaterial"
        {
            token outputs:surface.connect = </GameCase/Looks/ShellMaterial/PreviewSurface.outputs:surface>

            def Shader "PreviewSurface"
            {
                uniform token info:id = "UsdPreviewSurface"
                color3f inputs:diffuseColor = (0.025, 0.03, 0.04)
                float inputs:metallic = 0.05
                float inputs:roughness = 0.32
                token outputs:surface
            }
        }

        def Material "FrontMaterial"
        {
            token outputs:surface.connect = </GameCase/Looks/FrontMaterial/PreviewSurface.outputs:surface>

            def Shader "PreviewSurface"
            {
                uniform token info:id = "UsdPreviewSurface"
                color3f inputs:diffuseColor = (0.18, 0.2, 0.24)
                float inputs:metallic = 0
                float inputs:roughness = 0.46
                token outputs:surface
            }
        }
    }

    def Mesh "Shell"
    (
        prepend apiSchemas = ["MaterialBindingAPI"]
    )
    {
        int[] faceVertexCounts = [12, 12, 4, 4, 4, 4, 4, 4, 4, 4, 4, 4, 4, 4]
        int[] faceVertexIndices = [
            11, 10, 9, 8, 7, 6, 5, 4, 3, 2, 1, 0,
            12, 13, 14, 15, 16, 17, 18, 19, 20, 21, 22, 23,
            0, 1, 13, 12,
            1, 2, 14, 13,
            2, 3, 15, 14,
            3, 4, 16, 15,
            4, 5, 17, 16,
            5, 6, 18, 17,
            6, 7, 19, 18,
            7, 8, 20, 19,
            8, 9, 21, 20,
            9, 10, 22, 21,
            10, 11, 23, 22,
            11, 0, 12, 23
        ]
        point3f[] points = [
            (-0.34, 0.5, 0.03),
            (0.34, 0.5, 0.03),
            (0.365, 0.49, 0.03),
            (0.375, 0.465, 0.03),
            (0.375, -0.465, 0.03),
            (0.365, -0.49, 0.03),
            (0.34, -0.5, 0.03),
            (-0.34, -0.5, 0.03),
            (-0.365, -0.49, 0.03),
            (-0.375, -0.465, 0.03),
            (-0.375, 0.465, 0.03),
            (-0.365, 0.49, 0.03),
            (-0.34, 0.5, -0.03),
            (0.34, 0.5, -0.03),
            (0.365, 0.49, -0.03),
            (0.375, 0.465, -0.03),
            (0.375, -0.465, -0.03),
            (0.365, -0.49, -0.03),
            (0.34, -0.5, -0.03),
            (-0.34, -0.5, -0.03),
            (-0.365, -0.49, -0.03),
            (-0.375, -0.465, -0.03),
            (-0.375, 0.465, -0.03),
            (-0.365, 0.49, -0.03)
        ]
        uniform token subdivisionScheme = "none"
        rel material:binding = </GameCase/Looks/ShellMaterial>
    }

    def Mesh "Front"
    (
        prepend apiSchemas = ["MaterialBindingAPI"]
    )
    {
        int[] faceVertexCounts = [12]
        int[] faceVertexIndices = [11, 10, 9, 8, 7, 6, 5, 4, 3, 2, 1, 0]
        point3f[] points = [
            (-0.325, 0.483, 0.0315),
            (0.325, 0.483, 0.0315),
            (0.345, 0.475, 0.0315),
            (0.358, 0.452, 0.0315),
            (0.358, -0.452, 0.0315),
            (0.345, -0.475, 0.0315),
            (0.325, -0.483, 0.0315),
            (-0.325, -0.483, 0.0315),
            (-0.345, -0.475, 0.0315),
            (-0.358, -0.452, 0.0315),
            (-0.358, 0.452, 0.0315),
            (-0.345, 0.475, 0.0315)
        ]
        texCoord2f[] primvars:st = [
            (0.046, 1),
            (0.954, 1),
            (0.982, 0.992),
            (1, 0.968),
            (1, 0.032),
            (0.982, 0.008),
            (0.954, 0),
            (0.046, 0),
            (0.018, 0.008),
            (0, 0.032),
            (0, 0.968),
            (0.018, 0.992)
        ] (
            interpolation = "vertex"
        )
        uniform token subdivisionScheme = "none"
        rel material:binding = </GameCase/Looks/FrontMaterial>
    }
}
